<svg version="1.0" xmlns="http://www.w3.org/2000/svg"
 width="512.000000pt" height="512.000000pt" viewBox="0 0 512.000000 512.000000"
 preserveAspectRatio="xMidYMid meet">

<g transform="translate(0.000000,512.000000) scale(0.100000,-0.100000)"
fill="#000000" stroke="none">
<path d="M2070 5108 c-675 -63 -1311 -449 -1693 -1028 -82 -125 -201 -365
-250 -505 -179 -518 -165 -1100 39 -1612 l46 -114 -42 -95 c-254 -580 -218
-1011 100 -1168 82 -40 194 -65 295 -66 177 0 461 73 697 182 l66 30 117 -46
c187 -75 417 -132 613 -152 l62 -7 0 -223 c0 -152 4 -231 12 -249 26 -58 -57
-55 1488 -55 1545 0 1462 -3 1488 55 9 19 12 231 12 846 0 890 2 861 -55 887
-18 9 -124 12 -366 12 l-339 0 21 41 c77 152 162 433 196 649 21 141 24 489 5
625 -31 212 -80 396 -154 578 l-40 98 37 82 c51 110 129 351 151 462 12 60 18
135 18 225 0 120 -3 143 -28 214 -65 190 -183 290 -388 332 -197 40 -497 -18
-812 -156 l-95 -42 -98 40 c-342 140 -727 196 -1103 160z m421 -198 c150 -15
308 -47 432 -86 59 -19 107 -37 107 -39 0 -2 -33 -22 -74 -44 -109 -61 -412
-263 -571 -383 -291 -217 -558 -449 -569 -493 -16 -62 52 -134 115 -120 17 4
90 59 177 133 254 218 434 356 679 521 149 100 458 281 479 281 6 0 58 -28
115 -63 265 -159 496 -380 671 -642 79 -118 197 -362 243 -500 169 -513 130
-1082 -107 -1573 l-50 -102 -969 0 c-729 0 -975 -3 -994 -12 -55 -25 -55 -25
-55 -563 l0 -495 -24 0 c-49 0 -264 41 -366 70 -263 75 -519 205 -725 368
-215 170 -452 450 -545 643 l-23 47 63 113 c192 347 444 699 762 1066 61 71
109 135 113 152 14 63 -58 131 -120 115 -44 -11 -276 -278 -493 -569 -120
-160 -322 -462 -383 -573 -47 -84 -45 -85 -83 33 -78 236 -111 556 -86 816 62
639 402 1204 940 1564 379 252 887 380 1341 335z m1714 -16 c73 -26 148 -104
172 -180 26 -85 23 -259 -7 -384 -23 -98 -86 -289 -99 -303 -4 -4 -32 30 -63
75 -159 239 -387 467 -626 626 -45 31 -79 59 -75 63 24 22 289 101 402 119 81
13 237 4 296 -16z m-3824 -3341 c153 -236 397 -481 637 -641 45 -31 79 -59 75
-63 -14 -13 -205 -76 -303 -99 -125 -30 -299 -33 -384 -7 -78 24 -155 99 -182
177 -26 74 -26 253 0 365 27 121 98 335 110 335 2 0 23 -30 47 -67z m4539
-653 l0 -700 -1300 0 -1300 0 0 700 0 700 1300 0 1300 0 0 -700z"/>
<path d="M3225 3690 c-238 -49 -406 -251 -405 -489 1 -95 13 -149 52 -230 119
-240 424 -339 672 -217 211 105 320 367 247 596 -74 234 -330 388 -566 340z
m213 -220 c105 -45 175 -155 175 -272 0 -258 -302 -393 -493 -221 -68 61 -92
111 -98 199 -6 88 14 154 64 212 89 105 225 136 352 82z"/>
<path d="M1519 3601 c-77 -78 13 -206 110 -156 96 49 63 185 -44 185 -27 0
-44 -8 -66 -29z"/>
<path d="M1507 2520 c-109 -19 -200 -87 -249 -188 -30 -61 -33 -75 -33 -157 0
-71 5 -100 22 -137 32 -70 103 -141 176 -174 53 -25 74 -29 147 -29 107 1 174
30 247 108 189 199 80 526 -191 576 -33 6 -62 10 -65 10 -3 -1 -27 -5 -54 -9z
m136 -217 c40 -20 67 -70 67 -124 0 -153 -203 -204 -272 -68 -10 19 -18 50
-18 69 0 36 30 95 59 117 42 33 107 36 164 6z"/>
<path d="M2621 1386 c-48 -27 -50 -42 -51 -334 0 -296 3 -317 55 -340 17 -8
83 -12 185 -12 l160 0 0 -110 c0 -121 10 -154 51 -176 35 -18 63 -18 98 0 50
26 51 36 51 486 0 450 -1 460 -51 486 -34 17 -60 18 -94 2 -50 -23 -55 -49
-55 -278 l0 -210 -100 0 -100 0 0 210 c0 141 -4 218 -12 235 -22 48 -88 68
-137 41z"/>
<path d="M3523 1382 c-101 -36 -171 -115 -193 -216 -8 -33 -10 -139 -8 -296 3
-224 5 -249 24 -291 31 -66 78 -114 142 -146 47 -23 70 -28 132 -28 125 0 222
62 274 174 20 43 21 62 21 321 0 259 -1 278 -21 321 -65 141 -229 212 -371
161z m146 -196 c47 -25 51 -49 51 -287 0 -239 -5 -264 -55 -287 -51 -23 -107
-7 -131 39 -20 39 -20 462 0 498 26 47 84 63 135 37z"/>
<path d="M4121 1386 c-48 -27 -50 -42 -51 -334 0 -296 3 -317 55 -340 17 -8
83 -12 185 -12 l160 0 0 -110 c0 -121 10 -154 51 -176 35 -18 63 -18 98 0 50
26 51 36 51 486 0 450 -1 460 -51 486 -34 17 -60 18 -94 2 -50 -23 -55 -49
-55 -278 l0 -210 -100 0 -100 0 0 210 c0 141 -4 218 -12 235 -22 48 -88 68
-137 41z"/>
</g>
</svg>
